# xmcd
#
# Track frame offsets:
# 750
# 15225
# 29338
# 42000
# 55233
# 69745
# 85475
# 100893
# 116073
# 132225
# 146343
# 162368
# 176378
# 189638
# 206698
# 221200
# 239200
# 255788
# 283000
#
# Disc length: 3781 seconds
#
#
# Revision: 2
# Processed by: cddbd v1.5.2PL0 Copyright (c) Steve Scherf et al.
# Submitted via: FreeRIP 2.90 
#
DISCID=150ebb13
DTITLE=Truck Stop - 30 Jahre
DYEAR=2003
DGENRE=Country
TTITLE0=Lucius - Von Arizona bis Old Texas Town
TTITLE1=Gunter Gabriel and Chisco - Die Frau mit dem Gurt
TTITLE2=Lucius - 300 Jahre (wenn man uns addiert)
TTITLE3=Stefan Raab and Cisco - Der Wilde, Wilde Westen
TTITLE4=Lucius - Missisippi Lady
TTITLE5=Cisco - Wir sind die Country-Superstars
TTITLE6=The Bellamy Brothers and Lucius - Hello, Lady Harley
TTITLE7=Cisco - Das Leben ist viel zu kurz (egal wie lang es ist)
TTITLE8=Tom Astor and Cisco - Ich möcht' so gern Dave Dudley hör'n
TTITLE9=Cisco - Das gibt es nur in Mashville!
TTITLE10=Linda Feller and Lucius - Hey, kleiner Cowboy
TTITLE11=Cisco - Keep on truckin'
TTITLE12=Markus (Klostertaler) and Lucius - Take it easy, altes Haus
TTITLE13=Cisco - Wie schön, dass du das bist
TTITLE14=Höhner and Lucius - Angeln entspannt
TTITLE15=Cisco and Lucius - Ein Herz und eine Seele
TTITLE16=Lucius - Jenny
TTITLE17=Peter (Schürzenjäger) and Lucius - Freunde bleiben
TTITLE18=Daten-CD
EXTD=YEAR: 2003
EXTT0=
EXTT1=
EXTT2=
EXTT3=
EXTT4=
EXTT5=
EXTT6=
EXTT7=
EXTT8=
EXTT9=
EXTT10=
EXTT11=
EXTT12=
EXTT13=
EXTT14=
EXTT15=
EXTT16=
EXTT17=
EXTT18=No Comment!
PLAYORDER=
